<?xml version="1.0" standalone="no"?><!DOCTYPE svg PUBLIC "-//W3C//DTD SVG 1.1//EN" "http://www.w3.org/Graphics/SVG/1.1/DTD/svg11.dtd"><svg t="1720081085821" class="icon" viewBox="0 0 1024 1024" version="1.1" xmlns="http://www.w3.org/2000/svg" p-id="4525" xmlns:xlink="http://www.w3.org/1999/xlink" width="256" height="256"><path d="M492.416 221.184a21.333333 21.333333 0 0 0-21.333333 21.333333v293.546667a21.333333 21.333333 0 0 0 42.666666 0v-293.546667a21.333333 21.333333 0 0 0-21.333333-21.333333zM492.416 635.861333a21.333333 21.333333 0 0 0-21.333333 21.333334v7.509333a21.333333 21.333333 0 0 0 42.666666 0v-7.509333a21.333333 21.333333 0 0 0-21.333333-21.333334z" p-id="4526"></path><path d="M943.018667 679.04L594.176 64.426667A115.541333 115.541333 0 0 0 492.501333 5.248h-0.042666A115.626667 115.626667 0 0 0 390.698667 64.426667L41.813333 679.04a115.84 115.84 0 0 0 0.768 116.608 115.797333 115.797333 0 0 0 101.034667 58.112h26.624V981.333333c0 16.426667 9.856 30.976 25.130667 37.077334a40.789333 40.789333 0 0 0 15.232 2.944 37.845333 37.845333 0 0 0 27.562666-11.434667l170.922667-156.202667h432.170667c42.026667 0 79.786667-21.76 100.992-58.154666s21.504-79.957333 0.768-116.522667z m-37.589334 95.104a73.514667 73.514667 0 0 1-64.128 36.949333H400.853333a21.333333 21.333333 0 0 0-14.378666 5.589334L212.906667 975.274667V832.426667a21.333333 21.333333 0 0 0-21.333334-21.333334H143.573333a73.386667 73.386667 0 0 1-64.128-36.949333 73.514667 73.514667 0 0 1-0.512-74.026667l348.842667-614.613333a73.386667 73.386667 0 0 1 64.64-37.546667 73.386667 73.386667 0 0 1 64.597333 37.546667l348.885334 614.613333a73.514667 73.514667 0 0 1-0.469334 74.026667z" p-id="4527"></path></svg>