<?xml version="1.0" standalone="no"?><!DOCTYPE svg PUBLIC "-//W3C//DTD SVG 1.1//EN" "http://www.w3.org/Graphics/SVG/1.1/DTD/svg11.dtd"><svg t="1720080933351" class="icon" viewBox="0 0 1024 1024" version="1.1" xmlns="http://www.w3.org/2000/svg" p-id="4783" xmlns:xlink="http://www.w3.org/1999/xlink" width="256" height="256"><path d="M512 14.03871c277.305806 0 502.090323 224.784516 502.090323 502.090322S789.305806 1018.219355 512 1018.219355 9.909677 793.434839 9.909677 516.129032 234.694194 14.03871 512 14.03871z m-1.569032 653.576258a58.764387 58.764387 0 0 0-58.037678 59.392 59.458065 59.458065 0 1 0 58.037678-59.392z m-0.445936-421.838452a67.501419 67.501419 0 0 0-67.501419 67.501419c-0.082581 4.954839 0.528516 9.909677 1.816774 14.699355l28.787613 255.438452a36.946581 36.946581 0 0 0 73.794065 0l28.804129-255.421936c1.288258-4.789677 1.899355-9.744516 1.816774-14.715871a67.501419 67.501419 0 0 0-67.517936-67.501419z" p-id="4784"></path></svg>