<?xml version="1.0" standalone="no"?><!DOCTYPE svg PUBLIC "-//W3C//DTD SVG 1.1//EN" "http://www.w3.org/Graphics/SVG/1.1/DTD/svg11.dtd"><svg class="icon" width="16px" height="16.00px" viewBox="0 0 1024 1024" version="1.1" xmlns="http://www.w3.org/2000/svg"><path d="M512 51.2a217.6 217.6 0 1 1 0 435.2 217.6 217.6 0 0 1 0-435.2z m0 76.8a140.8 140.8 0 1 0 0 281.6 140.8 140.8 0 0 0 0-281.6z m380.032 815.0528c-26.4448-183.2704-182.3232-324.6848-371.9936-328.576L512 614.4c-193.28 0-353.2288 142.7968-380.032 328.6528L131.3792 947.2H54.016c25.4464-230.4 220.8-409.6 457.984-409.6s432.5376 179.2 457.984 409.6h-77.3888l-0.5632-4.1472z" /></svg>