<?xml version="1.0" standalone="no"?><!DOCTYPE svg PUBLIC "-//W3C//DTD SVG 1.1//EN" "http://www.w3.org/Graphics/SVG/1.1/DTD/svg11.dtd"><svg t="1720080914066" class="icon" viewBox="0 0 1024 1024" version="1.1" xmlns="http://www.w3.org/2000/svg" p-id="4640" xmlns:xlink="http://www.w3.org/1999/xlink" width="256" height="256"><path d="M512.212848 62.536288c-247.88774 0-448.840518 200.952778-448.840518 448.840519s200.952778 448.840518 448.840518 448.840518S961.053366 759.26557 961.053366 511.37783 760.100588 62.536288 512.212848 62.536288z m49.910736 748.217957h-99.822496v-100.091626h99.822496v100.091626z m113.601315-325.409325c-48.789193 74.507948-112.613824 85.279269-112.613824 175.497013h-101.348246v-29.623691c-1.545192-56.725956 27.805276-109.825314 76.662007-138.691759 53.860698-39.049365 71.814606-50.269917 71.814606-105.477286 0-59.247382-58.348919-75.853595-98.744955-75.853596-53.046147-1.681292-97.411587 39.95806-99.092879 93.004208a96.197946 96.197946 0 0 0 0.078794 7.984858l-99.373265-0.449232c0-143.17998 109.651352-199.284789 222.400253-199.284789 90.642416-5.072529 168.811754 63.021336 176.214351 153.503093a191.792141 191.792141 0 0 1-35.906792 119.391181h-0.09005z" fill="" p-id="4641"></path></svg>