<?xml version="1.0" standalone="no"?><!DOCTYPE svg PUBLIC "-//W3C//DTD SVG 1.1//EN" "http://www.w3.org/Graphics/SVG/1.1/DTD/svg11.dtd"><svg class="icon" width="16px" height="16.00px" viewBox="0 0 1024 1024" version="1.1" xmlns="http://www.w3.org/2000/svg"><path d="M522.6752 63.7696a25.6 25.6 0 0 1 12.5952 12.5952l114.6112 250.0864a25.6 25.6 0 0 0 20.3264 14.7712l273.2544 31.7184a25.6 25.6 0 0 1 14.3872 44.288l-202.4192 186.2656a25.6 25.6 0 0 0-7.7568 23.8848l54.272 269.6704a25.6 25.6 0 0 1-37.6832 27.3664l-239.6928-134.9376a25.6 25.6 0 0 0-25.1392 0l-239.6928 134.9376a25.6 25.6 0 0 1-37.6576-27.3664l54.272-269.6704a25.6 25.6 0 0 0-7.7824-23.8848l-202.4192-186.2912a25.6 25.6 0 0 1 14.3872-44.2624l273.2544-31.744a25.6 25.6 0 0 0 20.3264-14.7456l114.6112-250.0864a25.6 25.6 0 0 1 33.9456-12.5952zM512 209.92l-68.0704 148.5312a102.4 102.4 0 0 1-81.28 59.0592l-162.304 18.816 120.2432 110.6432a102.4 102.4 0 0 1 32.0512 89.7024l-1.024 5.8624-32.2304 160.128 142.3872-80.128a102.4 102.4 0 0 1 94.8992-2.8928l5.5552 2.9184 142.3616 80.1024-32.2048-160.128a102.4 102.4 0 0 1 26.7776-91.392l4.2496-4.1728 120.2176-110.6432-162.304-18.816a102.4 102.4 0 0 1-78.7712-54.016l-2.4832-5.0432L512 209.92z" /></svg>