<?xml version="1.0" standalone="no"?><!DOCTYPE svg PUBLIC "-//W3C//DTD SVG 1.1//EN" "http://www.w3.org/Graphics/SVG/1.1/DTD/svg11.dtd"><svg class="icon" width="16px" height="16.00px" viewBox="0 0 1024 1024" version="1.1" xmlns="http://www.w3.org/2000/svg"><path d="M484.864 237.6192L512 264.7808l27.136-27.136a243.2 243.2 0 0 1 338.9952-4.864l4.9664 4.864a243.2 243.2 0 0 1 0 343.936L548.1984 916.4544a51.2 51.2 0 0 1-72.3968 0L140.9024 581.5808A243.2 243.2 0 1 1 484.864 237.6192z m340.48 50.9952a166.4 166.4 0 0 0-231.8848 3.328L512 373.4016l-81.4592-81.4592a166.4 166.4 0 0 0-235.3152 235.3152L512 844.032l316.7744-316.7744c63.4112-63.3856 64.9472-165.2224 5.376-229.7856l-4.608-4.7872-4.1728-4.096z" /></svg>