<?xml version="1.0" standalone="no"?><!DOCTYPE svg PUBLIC "-//W3C//DTD SVG 1.1//EN" "http://www.w3.org/Graphics/SVG/1.1/DTD/svg11.dtd"><svg class="icon" width="16px" height="16.00px" viewBox="0 0 1024 1024" version="1.1" xmlns="http://www.w3.org/2000/svg"><path d="M499.456 763.8784l-239.7184 134.9376a25.6 25.6 0 0 1-37.6576-27.3664l54.272-269.6704a25.6 25.6 0 0 0-7.7824-23.8848l-202.4192-186.2912a25.6 25.6 0 0 1 14.3872-44.2624l273.2544-31.744a25.6 25.6 0 0 0 20.3264-14.7456l114.6112-250.0864a25.6 25.6 0 0 1 46.5408 0l114.6112 250.0864a25.6 25.6 0 0 0 20.3264 14.7712l273.2544 31.7184a25.6 25.6 0 0 1 14.3872 44.288l-202.4192 186.2656a25.6 25.6 0 0 0-7.7568 23.8848l54.272 269.6704a25.6 25.6 0 0 1-37.6832 27.3664l-239.6928-134.9376a25.6 25.6 0 0 0-25.1392 0z" /></svg>